<?xml version="1.0" standalone="no"?><!DOCTYPE svg PUBLIC "-//W3C//DTD SVG 1.1//EN" "http://www.w3.org/Graphics/SVG/1.1/DTD/svg11.dtd"><svg t="1665936430487" class="icon" viewBox="0 0 1024 1024" version="1.1" xmlns="http://www.w3.org/2000/svg" p-id="1995" xmlns:xlink="http://www.w3.org/1999/xlink" width="256" height="256"><path d="M511.572 316.734V317c0.073-0.044 0.142-0.089 0.214-0.133L512 317v-0.266c127.394-77.83 8.078-196.516 0-204.324V112l-0.214 0.204-0.214-0.204v0.41c-8.078 7.809-127.394 126.494 0 204.324zM287.5 580s21-21.75 59.75-10c0 0 36.25 11 58.5 29.25 0 0 52.5 31 64 35 0 0-81-66.5-92.5-133.5 0 0-9.75-77.75 81.75-71.75 0 0-10-44.5-78.5-41 0 0-73-2.5-82 82.5 0 0-2.25 31 35.75 71.75 0 0-40-5.25-46.75 37.75z" p-id="1996"></path><path d="M824.572 530c11-113.5-45.5-169-45.5-169 98 31 105.5-91.5 105.5-91.5-130-21.5-116.5 79.5-116.5 79.5-145-126-243-5-243-5-13 24 27.5 48 27.5 48 18.5-56 80.5-51.5 80.5-51.5 145 1.5 142.5 142 142.5 142 1.5 140-122.5 184-122.5 184-112.15 41.643-138.757 94.765-141.286 100.34-2.53-5.575-29.136-58.697-141.286-100.34 0 0-124-44-122.5-184 0 0-2.5-140.5 142.5-142 0 0 62-4.5 80.5 51.5 0 0 40.5-24 27.5-48 0 0-98-121-243 5 0 0 13.5-101-116.5-79.5 0 0 7.5 122.5 105.5 91.5 0 0-56.5 55.5-45.5 169 0 0-36.5-48-87 21 0 0 62.5 51 89.5-8 0 0 13.5 99 114.5 159 0 0 54.25 38.75 96.5 54.25 0 0 57.766 21.61 99.072 128.65v1.099c0.071-0.186 0.143-0.364 0.214-0.549 0.071 0.185 0.143 0.363 0.214 0.549V884.9c41.305-107.04 99.072-128.65 99.072-128.65 42.25-15.5 96.5-54.25 96.5-54.25 101-60 114.5-159 114.5-159 27 59 89.5 8 89.5 8-50.5-69-87-21-87-21z" p-id="1997"></path><path d="M553.822 634.25c11.5-4 64-35 64-35 22.25-18.25 58.5-29.25 58.5-29.25 38.75-11.75 59.75 10 59.75 10-6.75-43-46.75-37.75-46.75-37.75 38-40.75 35.75-71.75 35.75-71.75-9-85-82-82.5-82-82.5-68.5-3.5-78.5 41-78.5 41 91.5-6 81.75 71.75 81.75 71.75-11.5 67-92.5 133.5-92.5 133.5z" p-id="1998"></path></svg>